<?xml version="1.0" encoding="utf-8"?>
<!-- Generator: Adobe Illustrator 16.0.0, SVG Export Plug-In . SVG Version: 6.00 Build 0)  -->
<!DOCTYPE svg PUBLIC "-//W3C//DTD SVG 1.1//EN" "http://www.w3.org/Graphics/SVG/1.1/DTD/svg11.dtd">
<svg version="1.1" id="Layer_1" xmlns="http://www.w3.org/2000/svg" xmlns:xlink="http://www.w3.org/1999/xlink" x="0px" y="0px"
	 width="1425px" height="695px" viewBox="0 0 1425 695" enable-background="new 0 0 1425 695" xml:space="preserve">
<g id="Layer_2">
	<g id="Layer_1-2">
		<path fill="#FF3008" d="M35.768,561.319v97.326h24.873c26.524-0.369,47.731-22.159,47.381-48.683
			c0.697-26.159-19.941-47.929-46.099-48.629c-0.429-0.009-0.854-0.015-1.282-0.015H35.768z M60.641,530.758
			c46.394,0,81.452,35.102,81.452,79.205c0,44.101-35.059,79.203-81.452,79.203H5.761c-2.181,0-3.948-1.769-3.948-3.95V535.184
			c0-2.182,1.768-3.949,3.948-3.949L60.641,530.758z"/>
		<path fill="#FF3008" d="M261.806,661.998c28.738,0,52.038-23.298,52.038-52.035c0-28.739-23.3-52.04-52.038-52.04
			c-28.74,0-52.039,23.301-52.039,52.04C209.812,638.686,233.083,661.957,261.806,661.998 M261.806,527.402
			c48.644,0,85.954,37.313,85.954,82.561c0,45.245-37.311,82.597-85.954,82.597c-48.643,0-85.993-37.352-85.993-82.597
			c0-45.247,37.311-82.403,85.993-82.403"/>
		<path fill="#FF3008" d="M466.207,661.998c28.738,0.023,52.056-23.256,52.078-51.996c0.021-28.74-23.26-52.059-51.998-52.079
			c-28.74-0.021-52.056,23.259-52.079,51.999c0,0.015,0,0.026,0,0.041C414.253,638.668,437.501,661.937,466.207,661.998
			 M466.207,527.402c48.684,0,85.994,37.313,85.994,82.561c0,45.245-37.311,82.597-85.994,82.597
			c-48.683,0-85.953-37.352-85.953-82.597c0-45.247,37.311-82.403,85.953-82.403"/>
		<path fill="#FF3008" d="M666.146,561.319h-35.061v41.854h35.061c11.349,0.523,20.974-8.254,21.5-19.6
			c0.009-0.248,0.018-0.49,0.021-0.733c0.399-11.484-8.588-21.121-20.072-21.521C667.113,561.305,666.631,561.305,666.146,561.319
			 M597.133,534.867c0-2.182,1.768-3.949,3.946-3.949h66.055c31.587,0,54.289,23.097,54.289,52.079
			c0.188,19.579-10.774,37.556-28.269,46.35l30.479,53.856c1.206,1.818,0.71,4.266-1.105,5.472
			c-0.733,0.488-1.608,0.716-2.489,0.647h-26.729c-1.505,0.032-2.9-0.792-3.592-2.131l-29.376-53.304h-29.415v51.328
			c0,2.182-1.768,3.95-3.946,3.95h-25.744c-2.179,0-3.948-1.769-3.948-3.95L597.133,534.867z"/>
		<path fill="#FF3008" d="M809.908,562.07v97.285h24.991c26.505-0.369,47.707-22.136,47.376-48.645
			c0.697-26.156-19.943-47.926-46.1-48.623c-0.426-0.015-0.852-0.018-1.276-0.018H809.908z M834.899,531.512
			c46.388,0,81.49,35.058,81.49,79.199c0,44.146-35.103,79.203-81.49,79.203h-54.844c-2.182,0-3.949-1.769-3.949-3.947V535.458
			c0-2.182,1.768-3.946,3.949-3.946H834.899z"/>
		<path fill="#FF3008" d="M1019.715,570.205l-19.228,52.115h38.454L1019.715,570.205z M989.159,651.657l-12.599,34.626
			c-0.551,1.694-2.164,2.809-3.95,2.726h-27.161c-2.17,0.204-4.098-1.39-4.305-3.562c-0.064-0.701,0.06-1.41,0.355-2.049
			l59.029-150.033c0.591-1.649,2.199-2.711,3.943-2.607h30.602c1.744-0.104,3.359,0.958,3.95,2.607l58.981,150.033
			c0.929,1.978,0.077,4.327-1.897,5.253c-0.639,0.299-1.343,0.423-2.046,0.357h-27.32c-1.786,0.083-3.4-1.031-3.95-2.726
			l-12.593-34.626H989.159z"/>
		<path fill="#FF3008" d="M1129.638,573.6c0-24.915,21.515-46.392,55.47-46.392c18.192-0.44,35.841,6.199,49.238,18.515
			c1.579,1.613,1.579,4.191,0,5.806l-15.283,15.239c-1.537,1.549-4.032,1.558-5.581,0.023c-0.013-0.009-0.019-0.015-0.024-0.023
			c-7.178-6.539-16.507-10.22-26.215-10.347c-13.587,0-23.691,7.898-23.691,16.98c0,29.414,80.267,12.437,80.267,69.015
			c0,28.271-21.515,49.75-59.976,49.75c-21.379,0.258-41.978-8.014-57.249-22.981c-1.579-1.608-1.579-4.191,0-5.803l14.651-14.609
			c1.514-1.57,4.008-1.614,5.58-0.104c0.036,0.035,0.072,0.07,0.102,0.104c9.317,8.931,21.686,13.971,34.587,14.095
			c16.98,0,28.19-9.078,28.19-20.371c0-29.414-80.225-12.437-80.225-69.016"/>
		<path fill="#FF3008" d="M1389.428,534.711v59.221h-67.868v-59.221c0-2.186-1.768-3.953-3.949-3.953h-25.902
			c-2.176,0-3.943,1.768-3.943,3.953V684.74c0,2.185,1.768,3.949,3.943,3.949h25.748c2.176,0,3.943-1.765,3.943-3.949v-60.407
			h67.875v60.407c0,2.185,1.768,3.949,3.949,3.949h26.021c2.176,0,3.943-1.765,3.943-3.949V534.711c0-2.186-1.768-3.953-3.943-3.953
			h-25.749c-2.176-0.062-3.996,1.649-4.062,3.828C1389.434,534.628,1389.428,534.666,1389.428,534.711z"/>
		<path fill="#FF3008" d="M972.693,88.71C944.32,35.44,888.814,2.238,828.461,2.441H371.647
			c-8.723,0.123-15.693,7.292-15.569,16.012c0.057,4.058,1.671,7.939,4.512,10.836l99.498,100.088
			c8.785,8.844,20.739,13.817,33.205,13.82h322.061c22.881-1.635,42.752,15.593,44.39,38.472
			c1.632,22.881-15.591,42.756-38.478,44.388c-1.674,0.121-3.358,0.139-5.043,0.053H594.054
			c-8.723,0.103-15.711,7.255-15.609,15.976c0.045,4.07,1.663,7.969,4.512,10.873l99.538,100.088
			c8.785,8.845,20.74,13.816,33.205,13.82h100.363c130.652,0,229.436-139.649,156.471-278.273"/>
	</g>
</g>
</svg>
