<svg width="93" height="32" viewBox="0 0 93 32" fill="none" xmlns="http://www.w3.org/2000/svg">
<path d="M55.1929 1.48743C55.328 1.05958 55.0803 0.609208 54.6524 0.474097C54.5849 0.451579 54.4948 0.42906 54.4272 0.451578H47.4465L38.8669 29.5004L35.6018 15.3813L45.5549 1.78017C45.6225 1.6901 45.6675 1.60002 45.7126 1.48743L45.8927 0.901949C45.9377 0.7218 45.8477 0.519134 45.645 0.474097C45.6337 0.474097 45.6169 0.468468 45.6 0.462838C45.5831 0.457208 45.5662 0.451578 45.5549 0.451578H38.4616L30.8504 11.6208L34.0705 1.48743C34.1381 1.23973 34.093 0.969504 33.9354 0.766838C33.7778 0.564171 33.5301 0.42906 33.2823 0.42906H26.2566L20.1766 21.0785C20.3052 17.7139 17.8232 15.002 16.205 13.2338C16.1228 13.1441 16.0429 13.0567 15.9656 12.9719C14.6595 11.5307 13.8939 10.4948 14.029 9.36891C14.2317 7.79261 15.5378 6.59913 17.1141 6.53157C18.6039 6.41697 19.3647 6.78841 20.2484 7.21988C20.4065 7.29707 20.5687 7.37623 20.7395 7.45483C20.8747 7.52239 21.0098 7.54491 21.1449 7.54491C21.2575 7.54491 21.3701 7.52239 21.4827 7.47735C21.7304 7.38728 21.9105 7.18461 21.9781 6.95943L23.6219 1.44239L22.496 0.924468L22.3384 0.856912L22.2933 0.834393C20.9422 0.271431 19.501 -0.0213101 18.0373 0.00120841C11.8673 0.00120841 6.26014 4.41484 5.3594 9.8418C4.70637 13.6249 7.13837 16.3046 8.91733 18.2637L9.07496 18.4439C10.3585 19.8175 11.2367 20.8984 11.0341 22.1369C10.7413 23.8708 9.05244 24.8616 7.43111 24.9967C5.70212 25.1499 4.58999 24.665 3.24711 24.0795L3.13007 24.0285C2.88237 23.8933 2.58963 23.8258 2.31941 23.8708C2.04918 23.9609 1.824 24.1636 1.75644 24.4338L0.202666 29.7707L0 30.4462C0 30.4462 3.06252 32 6.62044 32C11.8673 32 16.416 29.9733 19.0957 25.1093L17.4969 30.5363C17.3618 30.9641 17.6095 31.437 18.0598 31.5496C18.1274 31.5721 18.2175 31.5721 18.285 31.5721H25.3108L27.0672 25.6047L29.2065 22.5197L30.8504 30.9191C30.9179 31.3019 31.2557 31.5721 31.661 31.5721H46.4332L55.1929 1.48743Z" fill="#FF8000"/>
<path fill-rule="evenodd" clip-rule="evenodd" d="M73.9733 2.7935C72.5997 1.28476 70.6406 0.429055 68.5914 0.451573H56.9493L56.4539 2.09542C56.4089 2.25305 56.4314 2.41068 56.5215 2.54579L56.8593 3.06372C57.1745 3.58164 57.2646 4.18965 57.0844 4.77513L49.5407 30.5138C49.4732 30.7615 49.5182 31.0317 49.6533 31.2344C49.811 31.437 50.0361 31.5721 50.3064 31.5721H57.0844L59.2012 24.4113H62.2637C69.6272 24.5013 73.3653 19.3221 75.0317 13.6925C75.7072 11.3956 76.045 9.75172 76.0225 8.64831C76 6.19379 75.392 4.34727 73.9733 2.7935ZM70.8432 12.2062L71.4287 12.589L67.0601 15.2012L67.0827 16.2596H64.4705L63.6148 19.1419H62.1736L63.1644 16.2596H59.8992L60.9801 14.8859L58.5707 11.8685L59.3363 11.5982C59.539 11.5307 59.6741 11.3505 59.6741 11.1479L59.6966 9.25631L61.2729 9.75172C61.453 9.79675 61.6332 9.75171 61.7458 9.59409L62.3763 8.78342L63.3221 10.4723C63.4121 10.6525 63.6824 10.5849 63.7274 10.3822L64.3579 6.55409L65.2136 7.27468C65.3262 7.36475 65.4838 7.34223 65.5964 7.22964L67.5555 5.00031L67.8483 7.2972C67.8708 7.45483 68.0284 7.5449 68.1635 7.47735L69.5372 6.89186L67.5555 10.6299C67.488 10.765 67.6456 10.9002 67.7582 10.8101L69.8975 9.21127L69.9425 10.0445C69.9425 10.157 70.0326 10.2471 70.1452 10.2246L72.1493 10.0445L70.8207 11.9135C70.7081 11.981 70.7306 12.1387 70.8432 12.2062Z" fill="#FF8000"/>
<path d="M86.7187 13.9627H91.3125C91.898 13.9627 92.3033 14.5031 92.1457 15.0661L91.4701 17.4305C91.3575 17.8133 91.0197 18.061 90.6369 18.061H85.5477L84.1066 23.1727C83.994 23.5556 83.6562 23.8033 83.2734 23.8033H80.9765C80.4135 23.8033 79.9857 23.2628 80.1433 22.6999L81.4494 18.061H76.8556C76.2926 18.061 75.8648 17.5206 76.0224 16.9576L76.698 14.5932C76.8106 14.2104 77.1483 13.9627 77.5312 13.9627H82.6203L84.0615 8.85098C84.1741 8.46817 84.5119 8.22046 84.8947 8.22046H87.1916C87.7546 8.22046 88.1824 8.76091 88.0248 9.32387L86.7187 13.9627Z" fill="#FF8000"/>
</svg>
